<?xml version="1.0" encoding="UTF-8"?>
<svg version="1.1" xmlns="http://www.w3.org/2000/svg" width="500" height="500">
<path d="M0 0 C2.93837906 3.29472325 5.07884142 6.76172921 7.1875 10.625 C11.69582313 18.48790336 19.01004927 31.00334976 28 34 C28 33.34 28 32.68 28 32 C28.99 32 29.98 32 31 32 C30.90460938 31.26394531 30.80921875 30.52789062 30.7109375 29.76953125 C30.60007813 28.79371094 30.48921875 27.81789062 30.375 26.8125 C30.25898438 25.84957031 30.14296875 24.88664062 30.0234375 23.89453125 C29.99724241 20.65943753 30.39371205 18.80493788 32 16 C34.80422856 14.28661084 37.76322379 13.51341967 41 13 C44.0625 13.8125 44.0625 13.8125 46 15 C46.20625 14.21625 46.4125 13.4325 46.625 12.625 C48 10 48 10 50.8125 8.5 C54 8 54 8 56.6875 9 C59.43433614 11.37564206 60.5041634 13.72340554 62 17 C62.66 17.33 63.32 17.66 64 18 C64.495 16.515 64.495 16.515 65 15 C71.625 13.75 71.625 13.75 75 16 C75 16.66 75 17.32 75 18 C76.6396875 18.0928125 76.6396875 18.0928125 78.3125 18.1875 C82 19 82 19 84 21.0625 C85.12823149 24.37668 84.66856046 26.48641389 84.078125 29.875 C83.93502865 33.7672206 85.77850894 36.89719609 88 40 C88.7425 40.474375 89.485 40.94875 90.25 41.4375 C92 43 92 43 92.390625 44.890625 C92.66346429 50.62025006 91.35715299 55.31795051 88 60 C87.01 60.66 86.02 61.32 85 62 C85.5053125 62.78503906 86.010625 63.57007813 86.53125 64.37890625 C93.23123312 75.21320435 93.23123312 75.21320435 92 81 C91.484375 81.42539062 90.96875 81.85078125 90.4375 82.2890625 C88.69126428 84.00097007 88.69126428 84.00097007 88.9609375 86.92578125 C89.16589844 88.60220703 89.16589844 88.60220703 89.375 90.3125 C89.9072763 94.80553816 90.07053491 98.57683181 89 103 C86.56714867 105.43285133 84.36397083 106.39929092 81 107 C81.0825 108.216875 81.165 109.43375 81.25 110.6875 C81.44262453 113.52871181 80.99842464 115.00333779 79.77050781 117.60498047 C75.20818738 121.54896738 70.10598339 120.65233915 64.28125 120.55859375 C63.03122192 120.55626236 61.78119385 120.55393097 60.49328613 120.55152893 C57.84964197 120.54178265 55.20815504 120.5227121 52.56494141 120.48706055 C49.18209904 120.44178778 45.80002561 120.42703419 42.41690826 120.42332363 C39.18410161 120.4178221 35.95147011 120.39444245 32.71875 120.37109375 C30.89833191 120.3630497 30.89833191 120.3630497 29.0411377 120.35484314 C27.91316772 120.33885574 26.78519775 120.32286835 25.62304688 120.30639648 C24.13556946 120.29043678 24.13556946 120.29043678 22.61804199 120.27415466 C19.919514 119.99157171 18.28547141 119.43270136 16 118 C13.22364104 114.39073335 13.85524212 110.34273654 14 106 C12.329375 105.814375 12.329375 105.814375 10.625 105.625 C7 105 7 105 5 103 C4.97975162 101.14582685 5.00805538 99.29098424 5.0625 97.4375 C4.81726002 93.19178292 4.43458381 91.48542454 1.5625 88.27734375 C-1.21875109 86.05017003 -4.05315083 84.0004486 -7 82 C-9 80 -9 80 -9.32080078 77.21508789 C-8.94822865 73.48114389 -7.93562754 71.66625945 -5.8671875 68.55859375 C-4.90619141 67.06489258 -4.90619141 67.06489258 -3.92578125 65.54101562 C-2.55442045 63.46568961 -1.17939416 61.39278125 0.19921875 59.32226562 C0.83730469 58.32775391 1.47539062 57.33324219 2.1328125 56.30859375 C3.02830811 54.95979126 3.02830811 54.95979126 3.94189453 53.58374023 C5.28893872 51.02574745 5.28893872 51.02574745 4.31982422 48.32836914 C3.01404591 45.84075335 3.01404591 45.84075335 0.75 43.4375 C-7.81855648 33.54679237 -10.47478796 21.44982651 -10.26171875 8.71484375 C-9.92920072 5.26558959 -8.99021955 2.83223551 -7 0 C-4.20824656 -1.39587672 -2.93876905 -0.97958968 0 0 Z M53 52 C51.700625 51.95875 50.40125 51.9175 49.0625 51.875 C45.7735321 51.77941624 45.7735321 51.77941624 43 53.5 C42.67 53.995 42.34 54.49 42 55 C42.639375 55.721875 43.27875 56.44375 43.9375 57.1875 C46.0237323 60.03236223 46.45817933 61.60649159 47 65 C48.03898437 64.97679687 49.07796875 64.95359375 50.1484375 64.9296875 C58.01091905 64.80895842 65.34268797 64.93841599 73 67 C71.62720894 61.50883578 69.25362943 56.77812208 65 53 C61.14776204 51.50518987 56.84550906 50.07724547 53 52 Z M17 54 C16.67 54.66 16.34 55.32 16 56 C17.98 55.67 19.96 55.34 22 55 C22 54.67 22 54.34 22 54 C20.35 54 18.7 54 17 54 Z M39 68 C39.99 68.99 40.98 69.98 42 71 C42.33 70.01 42.66 69.02 43 68 C41.68 68 40.36 68 39 68 Z " fill="#131313" transform="translate(154,227)"/>
<path d="M0 0 C2.93837906 3.29472325 5.07884142 6.76172921 7.1875 10.625 C12.25994716 19.47178418 19.80242741 31.79504861 30 35 C29.505 35.99 29.505 35.99 29 37 C27.35 36.34 25.7 35.68 24 35 C23.67 36.32 23.34 37.64 23 39 C22.34 39 21.68 39 21 39 C19.75185669 37.59321977 18.5769161 36.12120296 17.4375 34.625 C14.55125955 30.91112617 11.57391694 27.38540202 8.375 23.9375 C4.39403823 19.58396989 1.090537 15.01757771 -2 10 C-1.55527344 10.77085937 -1.11054688 11.54171875 -0.65234375 12.3359375 C-0.08644531 13.33882812 0.47945312 14.34171875 1.0625 15.375 C1.63097656 16.37273437 2.19945312 17.37046875 2.78515625 18.3984375 C3.18605469 19.25695312 3.58695313 20.11546875 4 21 C3.67 21.66 3.34 22.32 3 23 C-0.85320287 16.84771941 -4.24087457 10.71928194 -7 4 C-7.05410687 5.77049689 -7.09284119 7.54146849 -7.125 9.3125 C-7.15980469 10.79169922 -7.15980469 10.79169922 -7.1953125 12.30078125 C-7.20682639 15.22406527 -7.20682639 15.22406527 -5 18 C-5.66 18 -6.32 18 -7 18 C-6.23419309 19.89786929 -5.46212423 21.79321244 -4.6875 23.6875 C-4.25824219 24.74324219 -3.82898438 25.79898438 -3.38671875 26.88671875 C-2.07381037 30.00562407 -2.07381037 30.00562407 -0.33203125 32.76953125 C1 35 1 35 1 37 C2.65 37.66 4.3 38.32 6 39 C5.67 39.99 5.34 40.98 5 42 C5.78375 42.309375 6.5675 42.61875 7.375 42.9375 C10 44 10 44 12 45 C13.58158453 45.12800594 15.16547028 45.22847191 16.75 45.3125 C23.46813925 45.95921743 27.02605333 48.75376824 31.375 53.75 C32.2575637 54.82718031 33.13531695 55.9084143 34 57 C32.82824219 57.02578125 31.65648437 57.0515625 30.44921875 57.078125 C22.08645601 57.35062052 14.81134655 57.74289437 7.06640625 61.2578125 C5 62 5 62 2 61 C2.495 60.13375 2.99 59.2675 3.5 58.375 C5.17250859 54.61185567 5.79177777 53.03806663 5 49 C3.43216077 46.74285214 1.70250117 44.66681176 -0.05078125 42.55078125 C-8.26397292 31.80285708 -11.28768923 19.3573734 -10 6 C-7.84961551 0.23305977 -6.15398094 -2.05132698 0 0 Z M17 54 C16.67 54.66 16.34 55.32 16 56 C17.98 55.67 19.96 55.34 22 55 C22 54.67 22 54.34 22 54 C20.35 54 18.7 54 17 54 Z " fill="#171717" transform="translate(154,227)"/>
<path d="M0 0 C0.66 0 1.32 0 2 0 C0.125 5.75 0.125 5.75 -1 8 C0.60433809 7.52140759 2.20846416 7.04210442 3.8125 6.5625 C4.70582031 6.29566406 5.59914062 6.02882813 6.51953125 5.75390625 C8.35473055 5.19612127 10.18033726 4.60655425 12 4 C13.33525717 3.92026524 14.67412083 3.89228662 16.01171875 3.90234375 C17.14770508 3.90717773 17.14770508 3.90717773 18.30664062 3.91210938 C19.48516602 3.92467773 19.48516602 3.92467773 20.6875 3.9375 C21.48478516 3.94201172 22.28207031 3.94652344 23.10351562 3.95117188 C25.06904257 3.9629415 27.03453085 3.98087652 29 4 C29 4.33 29 4.66 29 5 C27.36804688 5.14695312 27.36804688 5.14695312 25.703125 5.296875 C10.1210462 6.41486879 10.1210462 6.41486879 -3.1875 13.625 C-5.0034109 15.85089504 -5.0034109 15.85089504 -6 18 C-1.43562277 17.08280836 2.90893167 16.07437925 7.25 14.375 C13.06500546 12.40605955 18.94327621 12.0125752 25 13 C27.9060624 14.55529035 30.08265914 16.30875065 32 19 C32 19.66 32 20.32 32 21 C32.99 21 33.98 21 35 21 C34.34 22.65 33.68 24.3 33 26 C37.34184202 25.81535634 37.34184202 25.81535634 41 24 C43.72033201 23.87201939 46.4040837 23.81477501 49.125 23.8125 C49.87265625 23.80025391 50.6203125 23.78800781 51.390625 23.77539062 C56.27777495 23.76261933 60.30314305 24.50634114 65 26 C68.56197544 26.20952797 71.58738847 26.05003432 75 25 C73.625 27.5625 73.625 27.5625 71 30 C66.05981299 30.40798672 61.21468326 29.07731916 56.4375 27.9375 C51.96098499 26.889805 47.58118193 26.35620865 43 27 C42.34 27.495 41.68 27.99 41 28.5 C38.11427082 30.66429689 35.62077208 30.40774983 32.09375 30.3046875 C29.40823636 29.91388514 28.1477215 28.61079113 26 27 C19.08453608 26.33076156 12.95686263 27.73035297 6.234375 29.34375 C3.29942237 29.93924763 0.96382391 30.40230599 -2 30 C-3.6953125 28.50390625 -3.6953125 28.50390625 -5.125 26.5625 C-7.40740512 23.47762211 -7.40740512 23.47762211 -11 22 C-9.65674476 16.38606914 -7.51249559 11.96622685 -4.5 7.0625 C-4.09652344 6.37865234 -3.69304687 5.69480469 -3.27734375 4.99023438 C-2.2467162 3.28782814 -1.1300256 1.63811547 0 0 Z " fill="#0C0C0C" transform="translate(158,280)"/>
<path d="M0 0 C2.5417666 3.8126499 4.00365091 7.839957 5.68359375 12.08984375 C6.88165138 14.73836877 8.1567232 16.76979629 10 19 C9.33291016 17.84371094 9.33291016 17.84371094 8.65234375 16.6640625 C8.08644531 15.66117188 7.52054688 14.65828125 6.9375 13.625 C6.36902344 12.62726563 5.80054688 11.62953125 5.21484375 10.6015625 C4.81394531 9.74304688 4.41304687 8.88453125 4 8 C4.33 7.34 4.66 6.68 5 6 C5.70962891 7.12535156 5.70962891 7.12535156 6.43359375 8.2734375 C10.48797771 14.54864387 14.66892966 20.07841566 19.7578125 25.5546875 C22.05200587 28.0567172 24.23063918 30.61864149 26.375 33.25 C27.31472656 34.40242188 27.31472656 34.40242188 28.2734375 35.578125 C30 38 30 38 31.30859375 40.8671875 C33.50007507 44.92623603 36.37887124 47.70617246 39.6875 50.875 C40.29400391 51.46796875 40.90050781 52.0609375 41.52539062 52.671875 C43.01014785 54.12155922 44.50414991 55.56176468 46 57 C45.01 57.495 45.01 57.495 44 58 C41.35879714 56.2391981 40.09759534 55.03498255 38.1875 52.625 C34.9157491 48.78529234 31.89495589 45.39367559 26.64453125 44.6796875 C24.92378442 44.5599381 23.20238278 44.44925178 21.48046875 44.34765625 C17.65202338 43.81107099 15.17842007 42.14197875 12 40 C12 39.01 12 38.02 12 37 C11.12408203 36.69835937 11.12408203 36.69835937 10.23046875 36.390625 C7.07252029 34.42174645 6.03435827 32.02190422 4.3125 28.75 C3.71050781 27.63109375 3.10851562 26.5121875 2.48828125 25.359375 C0.8025894 21.55440126 0 18.15747514 0 14 C-0.33 13.67 -0.66 13.34 -1 13 C-1.09879565 11.189715 -1.12971514 9.37547273 -1.125 7.5625 C-1.12757813 6.57378906 -1.13015625 5.58507812 -1.1328125 4.56640625 C-1 2 -1 2 0 0 Z " fill="#EDECEB" transform="translate(147,229)"/>
<path d="M0 0 C0.66 0 1.32 0 2 0 C2.66 0.99 3.32 1.98 4 3 C4.66 2.67 5.32 2.34 6 2 C6 3.32 6 4.64 6 6 C7.32 6.66 8.64 7.32 10 8 C8.68 8 7.36 8 6 8 C6 8.66 6 9.32 6 10 C6.66 10.33 7.32 10.66 8 11 C7.67 11.66 7.34 12.32 7 13 C6.34 13 5.68 13 5 13 C4.67 13.66 4.34 14.32 4 15 C3.67 14.67 3.34 14.34 3 14 C2.34 14.66 1.68 15.32 1 16 C0.67 16.33 0.34 16.66 0 17 C0.79117904 18.99983534 0.79117904 18.99983534 2 21 C2.99 21.33 3.98 21.66 5 22 C4.34 22.33 3.68 22.66 3 23 C4.54273409 28.75272532 7.47708263 33.33096071 10.625 38.3125 C11.63984773 39.93245069 12.65296913 41.55348462 13.6640625 43.17578125 C14.11217285 43.88645752 14.5602832 44.59713379 15.02197266 45.3293457 C16 47 16 47 16 48 C9.83536239 48.27925878 5.03560599 47.36033147 -0.8125 45.5 C-9.58156657 42.89152009 -17.33230357 41.18007715 -26 45 C-24.63016497 41.83884224 -24.0109362 41.0072908 -21 39 C-10.67151123 37.32272405 -0.72986192 40.97293185 9 44 C8.15731712 40.28460271 6.69759774 37.26204388 4.9375 33.875 C2 28.22117647 2 28.22117647 2 26 C1.40703125 25.92910156 0.8140625 25.85820312 0.203125 25.78515625 C-2.81453665 24.709713 -3.58238632 23.12842208 -5.25 20.4375 C-6.03117187 19.19806641 -6.03117187 19.19806641 -6.828125 17.93359375 C-7.40820312 16.97646484 -7.40820312 16.97646484 -8 16 C-9.32 16.99 -10.64 17.98 -12 19 C-12.33 17.68 -12.66 16.36 -13 15 C-12.01 14.67 -11.02 14.34 -10 14 C-9.87625 13.4225 -9.7525 12.845 -9.625 12.25 C-8.41656666 7.89963997 -4.62036206 5.41357471 -1 3 C-0.67 2.01 -0.34 1.02 0 0 Z " fill="#2D2C2B" transform="translate(223,254)"/>
<path d="M0 0 C3.36592378 0.28049365 4.67817268 0.64121033 6.97265625 3.19921875 C8.94850795 5.92886358 10.57417391 8.66922727 12.1875 11.625 C17.25994716 20.47178418 24.80242741 32.79504861 35 36 C34.505 36.99 34.505 36.99 34 38 C32.35 37.34 30.7 36.68 29 36 C28.67 37.32 28.34 38.64 28 40 C27.34 40 26.68 40 26 40 C24.75185669 38.59321977 23.5769161 37.12120296 22.4375 35.625 C19.57767319 31.94141873 16.62640255 28.46436008 13.4375 25.0625 C7.19105759 18.21086594 0 9.64509635 0 0 Z " fill="#040404" transform="translate(149,226)"/>
<path d="M0 0 C0.66 0 1.32 0 2 0 C0.125 5.75 0.125 5.75 -1 8 C0.60433809 7.52140759 2.20846416 7.04210442 3.8125 6.5625 C4.70582031 6.29566406 5.59914062 6.02882813 6.51953125 5.75390625 C8.35473055 5.19612127 10.18033726 4.60655425 12 4 C13.33525717 3.92026524 14.67412083 3.89228662 16.01171875 3.90234375 C17.14770508 3.90717773 17.14770508 3.90717773 18.30664062 3.91210938 C19.48516602 3.92467773 19.48516602 3.92467773 20.6875 3.9375 C21.48478516 3.94201172 22.28207031 3.94652344 23.10351562 3.95117188 C25.06904257 3.9629415 27.03453085 3.98087652 29 4 C29 4.33 29 4.66 29 5 C27.36804688 5.14695312 27.36804688 5.14695312 25.703125 5.296875 C10.1210462 6.41486879 10.1210462 6.41486879 -3.1875 13.625 C-5.0034109 15.85089504 -5.0034109 15.85089504 -6 18 C-1.43562277 17.08280836 2.90893167 16.07437925 7.25 14.375 C13.04537398 12.39907284 18.95618428 12.11167013 25 13 C27.6950566 14.40104025 28.97004611 15.68005269 31 18 C30.67 18.66 30.34 19.32 30 20 C29.401875 19.505 28.80375 19.01 28.1875 18.5 C19.72835747 14.51922704 10.90766963 17.56355164 2.45825195 20.22070312 C-2.22662412 21.66489371 -6.09435295 22.25955804 -11 22 C-9.65674476 16.38606914 -7.51249559 11.96622685 -4.5 7.0625 C-4.09652344 6.37865234 -3.69304687 5.69480469 -3.27734375 4.99023438 C-2.2467162 3.28782814 -1.1300256 1.63811547 0 0 Z " fill="#D0D0D0" transform="translate(158,280)"/>
<path d="M0 0 C0.74958984 -0.00773437 1.49917969 -0.01546875 2.27148438 -0.0234375 C6.10230258 -0.00974378 7.92896612 0.07764408 11.1875 2.25 C16.52218429 2.63464895 16.52218429 2.63464895 21.1875 0.25 C23.97908732 0.05308305 26.64852451 -0.02860488 29.4375 0 C30.17613281 -0.00773437 30.91476563 -0.01546875 31.67578125 -0.0234375 C36.51381751 -0.00637212 40.53937648 0.78126208 45.1875 2.25 C48.74947544 2.45952797 51.77488847 2.30003432 55.1875 1.25 C53.8125 3.8125 53.8125 3.8125 51.1875 6.25 C46.24731299 6.65798672 41.40218326 5.32731916 36.625 4.1875 C32.14848499 3.139805 27.76868193 2.60620865 23.1875 3.25 C22.5275 3.745 21.8675 4.24 21.1875 4.75 C18.30177082 6.91429689 15.80827208 6.65774983 12.28125 6.5546875 C9.59573636 6.16388514 8.3352215 4.86079113 6.1875 3.25 C-0.72796392 2.58076156 -6.85563737 3.98035297 -13.578125 5.59375 C-16.48558832 6.18367009 -18.86906853 6.58107138 -21.8125 6.25 C-24.125 3.75 -24.125 3.75 -25.8125 1.25 C-24.9771875 1.39308594 -24.9771875 1.39308594 -24.125 1.5390625 C-22.9803125 1.70535156 -22.9803125 1.70535156 -21.8125 1.875 C-21.07 1.99101562 -20.3275 2.10703125 -19.5625 2.2265625 C-16.50073199 2.25265711 -13.91029021 1.52174948 -10.97119141 0.72607422 C-7.3228676 -0.07852106 -3.72079826 -0.03940828 0 0 Z " fill="#D9D9D9" transform="translate(177.8125,303.75)"/>
<path d="M0 0 C0.33 0 0.66 0 1 0 C1 3.63 1 7.26 1 11 C2.32 10.34 3.64 9.68 5 9 C4.875 10.875 4.875 10.875 4 13 C-0.86058157 15.43029078 -5.70337242 15.2118651 -11 15 C-11 16.98 -11 18.96 -11 21 C-11.66 21 -12.32 21 -13 21 C-13 20.34 -13 19.68 -13 19 C-14.11375 18.87625 -15.2275 18.7525 -16.375 18.625 C-20 18 -20 18 -22 16 C-22.1953125 13.6171875 -22.1953125 13.6171875 -22.125 10.875 C-22.10695312 9.96492188 -22.08890625 9.05484375 -22.0703125 8.1171875 C-22.04710937 7.41851562 -22.02390625 6.71984375 -22 6 C-21.67 6 -21.34 6 -21 6 C-21 7.65 -21 9.3 -21 11 C-20.34 11 -19.68 11 -19 11 C-19 8.36 -19 5.72 -19 3 C-17 6 -17 6 -16.5 8.125 C-16.335 8.74375 -16.17 9.3625 -16 10 C-15.34 10.33 -14.68 10.66 -14 11 C-13.67 9.68 -13.34 8.36 -13 7 C-13 8.32 -13 9.64 -13 11 C-9.7 11 -6.4 11 -3 11 C-4.32 10.67 -5.64 10.34 -7 10 C-7 8.35 -7 6.7 -7 5 C-6.01 5 -5.02 5 -4 5 C-4 4.34 -4 3.68 -4 3 C-3.01 3 -2.02 3 -1 3 C-0.67 2.01 -0.34 1.02 0 0 Z " fill="#080808" transform="translate(181,314)"/>
<path d="M0 0 C1.75 3.125 1.75 3.125 3 6 C3.66 6.33 4.32 6.66 5 7 C5 6.34 5 5.68 5 5 C6.32 5 7.64 5 9 5 C9 5.66 9 6.32 9 7 C9.66 7.33 10.32 7.66 11 8 C11 8.66 11 9.32 11 10 C10.01 10.33 9.02 10.66 8 11 C6.79117904 13.00016466 6.79117904 13.00016466 6 15 C4.68 14.67 3.36 14.34 2 14 C2 12.68 2 11.36 2 10 C-3.7974423 9.75571657 -3.7974423 9.75571657 -9 12 C-9.66 11.34 -10.32 10.68 -11 10 C-11 9.01 -11 8.02 -11 7 C-12.32 7.33 -13.64 7.66 -15 8 C-14.38242733 3.98577764 -12.46625981 1.17090547 -10 -2 C-6.20821262 -4.14867952 -3.39244482 -2.23756999 0 0 Z " fill="#151514" transform="translate(213,238)"/>
<path d="M0 0 C5.73968396 0.31655732 8.95614749 2.16148244 12.8828125 6.38671875 C14.36130794 8.08183097 15.77997816 9.80864697 17.1875 11.5625 C15.96933594 11.62308594 14.75117188 11.68367188 13.49609375 11.74609375 C11.87238723 11.83056403 10.24868978 11.91520872 8.625 12 C7.42520508 12.05897461 7.42520508 12.05897461 6.20117188 12.11914062 C1.47378494 12.36998156 -3.13726901 12.81571814 -7.8125 13.5625 C-8.0166623 9.54730812 -8.06361963 6.4234816 -6.9375 2.5625 C-4.39007509 0.16492361 -3.42174913 0.15951011 0 0 Z M0.1875 8.5625 C-0.1425 9.2225 -0.4725 9.8825 -0.8125 10.5625 C1.1675 10.2325 3.1475 9.9025 5.1875 9.5625 C5.1875 9.2325 5.1875 8.9025 5.1875 8.5625 C3.5375 8.5625 1.8875 8.5625 0.1875 8.5625 Z " fill="#050505" transform="translate(170.8125,272.4375)"/>
<path d="M0 0 C2.50660622 2.30271514 4.17636166 4.71544056 5.91796875 7.6328125 C6.44970703 8.52097656 6.98144531 9.40914063 7.52929688 10.32421875 C8.07650391 11.24847656 8.62371094 12.17273438 9.1875 13.125 C9.74630859 14.05699219 10.30511719 14.98898437 10.88085938 15.94921875 C15 22.85971841 15 22.85971841 15 24 C8.83536239 24.27925878 4.03560599 23.36033147 -1.8125 21.5 C-10.58156657 18.89152009 -18.33230357 17.18007715 -27 21 C-25.63016497 17.83884224 -25.0109362 17.0072908 -22 15 C-11.67151123 13.32272405 -1.72986192 16.97293185 8 20 C7.1007073 15.96062641 5.33729956 12.52411995 3.4375 8.875 C0 2.26908023 0 2.26908023 0 0 Z " fill="#D5D5D5" transform="translate(224,278)"/>
<path d="M0 0 C-0.33 1.32 -0.66 2.64 -1 4 C-8.625 3.125 -8.625 3.125 -12 2 C-13.48123547 1.9193378 -14.96582204 1.89238807 -16.44921875 1.90234375 C-17.29677734 1.90556641 -18.14433594 1.90878906 -19.01757812 1.91210938 C-20.33918945 1.92467773 -20.33918945 1.92467773 -21.6875 1.9375 C-23.02651367 1.94426758 -23.02651367 1.94426758 -24.39257812 1.95117188 C-26.59511987 1.96295017 -28.79752599 1.97939836 -31 2 C-30.625 -0.41796875 -30.625 -0.41796875 -30 -3 C-21.06556493 -8.86322301 -8.98466756 -3.08675695 0 0 Z " fill="#181817" transform="translate(228,303)"/>
<path d="M0 0 C2.98252325 2.68144835 4.98139029 5.85686003 7.1875 9.1875 C10.43020737 13.9958125 13.84134041 18.0279024 18.06640625 22.0234375 C21.53910104 25.57330328 24.69166301 29.59459753 27 34 C26.67 34.99 26.34 35.98 26 37 C24.2925002 35.71937515 22.62626404 34.38232443 21 33 C21 32.34 21 31.68 21 31 C20.38125 30.7525 19.7625 30.505 19.125 30.25 C16.64931313 28.79371361 16.04874998 27.62187494 15 25 C14.34 25 13.68 25 13 25 C8.85288998 20.55254218 6.21356179 15.63452092 4 10 C2.94858248 7.88561092 1.86643525 5.79032038 0.76953125 3.69921875 C0 2 0 2 0 0 Z " fill="#BAB8B7" transform="translate(151,235)"/>
<path d="M0 0 C0.66 0 1.32 0 2 0 C2.66 0.99 3.32 1.98 4 3 C4.66 2.67 5.32 2.34 6 2 C6 3.32 6 4.64 6 6 C7.32 6.66 8.64 7.32 10 8 C8.68 8 7.36 8 6 8 C6 8.66 6 9.32 6 10 C6.66 10.33 7.32 10.66 8 11 C7.67 11.66 7.34 12.32 7 13 C6.34 13 5.68 13 5 13 C4.67 13.66 4.34 14.32 4 15 C3.67 14.67 3.34 14.34 3 14 C2.34 14.66 1.68 15.32 1 16 C0.5875 15.360625 0.175 14.72125 -0.25 14.0625 C-2.17810487 11.79009069 -3.11424181 11.39803561 -6 11 C-5.49166802 7.23834336 -4.8405007 5.49964062 -2 3 C-1.34 2.01 -0.68 1.02 0 0 Z " fill="#868584" transform="translate(223,254)"/>
<path d="M0 0 C0.66 0 1.32 0 2 0 C0.125 5.75 0.125 5.75 -1 8 C0.60433809 7.52140759 2.20846416 7.04210442 3.8125 6.5625 C4.70582031 6.29566406 5.59914062 6.02882813 6.51953125 5.75390625 C8.35473055 5.19612127 10.18033726 4.60655425 12 4 C13.33525717 3.92026524 14.67412083 3.89228662 16.01171875 3.90234375 C17.14770508 3.90717773 17.14770508 3.90717773 18.30664062 3.91210938 C19.48516602 3.92467773 19.48516602 3.92467773 20.6875 3.9375 C21.48478516 3.94201172 22.28207031 3.94652344 23.10351562 3.95117188 C25.06904257 3.9629415 27.03453085 3.98087652 29 4 C29 4.33 29 4.66 29 5 C27.36804688 5.14695312 27.36804688 5.14695312 25.703125 5.296875 C10.12962741 6.3909859 10.12962741 6.3909859 -3.125 13.625 C-3.74375 14.40875 -4.3625 15.1925 -5 16 C-5.66 16.66 -6.32 17.32 -7 18 C-7.99 18 -8.98 18 -10 18 C-8.46885867 13.76543725 -6.35110294 10.00804228 -4 6.1875 C-3.64421875 5.59001953 -3.2884375 4.99253906 -2.921875 4.37695312 C-2.00555558 2.88109586 -1.00864753 1.43522138 0 0 Z " fill="#BABABA" transform="translate(158,280)"/>
<path d="M0 0 C0.66 0.99 1.32 1.98 2 3 C2.66 2.67 3.32 2.34 4 2 C4 2.99 4 3.98 4 5 C4.99 5.33 5.98 5.66 7 6 C6.75 7.875 6.75 7.875 6 10 C4.68352881 10.69937532 3.34977849 11.36729133 2 12 C1.67 12.99 1.34 13.98 1 15 C-1.0625 15.6875 -1.0625 15.6875 -3 16 C-3.268125 15.195625 -3.53625 14.39125 -3.8125 13.5625 C-4.204375 12.716875 -4.59625 11.87125 -5 11 C-5.99 10.67 -6.98 10.34 -8 10 C-8 8.68 -8 7.36 -8 6 C-6.68 5.67 -5.36 5.34 -4 5 C-3.67 3.68 -3.34 2.36 -3 1 C-2.34 1.33 -1.68 1.66 -1 2 C-0.67 1.34 -0.34 0.68 0 0 Z " fill="#939291" transform="translate(187,259)"/>
<path d="M0 0 C5.4 0.6 5.4 0.6 7.875 2.25 C9.43461825 4.67607284 9.42450671 6.16995526 9 9 C7.875 10.8125 7.875 10.8125 6 12 C4.02 12 2.04 12 0 12 C0 8.04 0 4.08 0 0 Z " fill="#929190" transform="translate(220,313)"/>
<path d="M0 0 C2.31 0 4.62 0 7 0 C7.33 0.99 7.66 1.98 8 3 C8.66 3 9.32 3 10 3 C10 2.01 10 1.02 10 0 C10.99 0 11.98 0 13 0 C13.33 3.96 13.66 7.92 14 12 C13.34 12 12.68 12 12 12 C11.814375 10.2984375 11.814375 10.2984375 11.625 8.5625 C11.41875 7.386875 11.2125 6.21125 11 5 C10.34 4.67 9.68 4.34 9 4 C9.12375 5.1446875 9.12375 5.1446875 9.25 6.3125 C9 9 9 9 7.125 10.8125 C5 12 5 12 3 12 C2.67 8.7 2.34 5.4 2 2 C1.01 2.495 1.01 2.495 0 3 C0 2.01 0 1.02 0 0 Z " fill="#50504F" transform="translate(179,313)"/>
<path d="M0 0 C0.804375 0.495 1.60875 0.99 2.4375 1.5 C1.4475 1.83 0.4575 2.16 -0.5625 2.5 C-0.5625 3.16 -0.5625 3.82 -0.5625 4.5 C-1.8 4.520625 -3.0375 4.54125 -4.3125 4.5625 C-5.00859375 4.57410156 -5.7046875 4.58570313 -6.421875 4.59765625 C-8.5625 4.5 -8.5625 4.5 -10.40625 4 C-13.3982037 3.30621364 -16.24634289 3.40683843 -19.3125 3.4375 C-21.06820312 3.45103516 -21.06820312 3.45103516 -22.859375 3.46484375 C-23.75140625 3.47644531 -24.6434375 3.48804688 -25.5625 3.5 C-17.35946857 -0.73976905 -8.90267751 -3.7484958 0 0 Z " fill="#5D5D5D" transform="translate(185.5625,299.5)"/>
<path d="M0 0 C1 1 1 1 1.125 4.5 C1 8 1 8 0 9 C-2.9375 9.25 -2.9375 9.25 -6 9 C-8 6 -8 6 -7.75 2.875 C-7.37875 1.451875 -7.37875 1.451875 -7 0 C-4.31633121 -1.3418344 -2.84719317 -0.73004953 0 0 Z " fill="#0B0B0B" transform="translate(216,315)"/>
<path d="M0 0 C2.0625 0.6875 2.0625 0.6875 5.0625 2.6875 C5.0625 4.0075 5.0625 5.3275 5.0625 6.6875 C4.0725 7.0175 3.0825 7.3475 2.0625 7.6875 C2.0625 8.3475 2.0625 9.0075 2.0625 9.6875 C-0.3125 9.8125 -0.3125 9.8125 -2.9375 9.6875 C-3.5975 9.0275 -4.2575 8.3675 -4.9375 7.6875 C-4.6875 4.125 -4.6875 4.125 -3.9375 0.6875 C-1.9375 -0.3125 -1.9375 -0.3125 0 0 Z " fill="#040404" transform="translate(200.9375,314.3125)"/>
<path d="M0 0 C0.99 0.33 1.98 0.66 3 1 C2.7834375 1.7734375 2.7834375 1.7734375 2.5625 2.5625 C1.52639045 7.05230806 1 11.39324121 1 16 C-3.625 18.125 -3.625 18.125 -7 17 C-6.505 16.0925 -6.01 15.185 -5.5 14.25 C-3.72062788 10.99126962 -3.72062788 10.99126962 -4 7 C-3.34 7 -2.68 7 -2 7 C-2.04125 6.21625 -2.0825 5.4325 -2.125 4.625 C-2 2 -2 2 0 0 Z " fill="#282827" transform="translate(163,271)"/>
<path d="M0 0 C0.66 0 1.32 0 2 0 C2 3.96 2 7.92 2 12 C0.35 12 -1.3 12 -3 12 C-3.66 10.35 -4.32 8.7 -5 7 C-5.33 8.65 -5.66 10.3 -6 12 C-6.66 11.67 -7.32 11.34 -8 11 C-7.67 7.7 -7.34 4.4 -7 1 C-6.01 1.33 -5.02 1.66 -4 2 C-3.67 2.99 -3.34 3.98 -3 5 C-2.54625 4.175 -2.0925 3.35 -1.625 2.5 C-1.08875 1.675 -0.5525 0.85 0 0 Z " fill="#383736" transform="translate(168,313)"/>
<path d="M0 0 C2.97 0.495 2.97 0.495 6 1 C6 1.66 6 2.32 6 3 C6.66 3.66 7.32 4.32 8 5 C7.34 6.32 6.68 7.64 6 9 C5.34 9 4.68 9 4 9 C3.67 9.66 3.34 10.32 3 11 C3 10.34 3 9.68 3 9 C1.35 9.33 -0.3 9.66 -2 10 C-2 9.34 -2 8.68 -2 8 C-2.66 7.34 -3.32 6.68 -4 6 C-2.25 2.125 -2.25 2.125 0 1 C0 0.67 0 0.34 0 0 Z " fill="#939291" transform="translate(203,254)"/>
<path d="M0 0 C1.23076923 6.4 1.23076923 6.4 0.0625 9.4375 C-0.288125 9.953125 -0.63875 10.46875 -1 11 C-2.875 10.75 -2.875 10.75 -5 10 C-6.82476222 7.5669837 -7.03301207 6.35487977 -6.75 3.3125 C-6.5025 2.549375 -6.255 1.78625 -6 1 C-4 0 -4 0 0 0 Z " fill="#636361" transform="translate(192,242)"/>
<path d="M0 0 C-4.01773252 1.23026927 -6.0271805 0.32427317 -10 -1 C-12.33212027 -1.07522969 -14.6685311 -1.09325876 -17 -1 C-14.36 -0.67 -11.72 -0.34 -9 0 C-12.20945602 2.8503026 -14.49988548 3.43451699 -18.75 3.6875 C-19.73484375 3.75324219 -20.7196875 3.81898438 -21.734375 3.88671875 C-22.48203125 3.92410156 -23.2296875 3.96148437 -24 4 C-23.625 1.58203125 -23.625 1.58203125 -23 -1 C-16.04171941 -5.56637164 -7.08361507 -2.81335067 0 0 Z " fill="#747473" transform="translate(221,301)"/>
<path d="M0 0 C0.66 0 1.32 0 2 0 C2.0825 0.61875 2.165 1.2375 2.25 1.875 C2.81258459 4.18437567 2.81258459 4.18437567 5.0625 5.25 C5.701875 5.4975 6.34125 5.745 7 6 C6.67 6.66 6.34 7.32 6 8 C6.99 7.67 7.98 7.34 9 7 C9 7.66 9 8.32 9 9 C8.01 9 7.02 9 6 9 C5.67 9.99 5.34 10.98 5 12 C3.4375 13.6875 3.4375 13.6875 2 15 C2 14.34 2 13.68 2 13 C0.68 13 -0.64 13 -2 13 C-2 12.34 -2 11.68 -2 11 C-1.01 11 -0.02 11 1 11 C0.67 7.37 0.34 3.74 0 0 Z " fill="#161616" transform="translate(184,248)"/>
<path d="M0 0 C8.26405949 -0.56993514 15.1977858 1.51394597 23 4 C22.67 4.66 22.34 5.32 22 6 C14.72755418 5.24767802 14.72755418 5.24767802 11.0625 4 C7.08014105 2.69963789 3.15922074 2.35122308 -1 2 C-0.67 1.34 -0.34 0.68 0 0 Z " fill="#090909" transform="translate(204,296)"/>
<path d="M0 0 C3.76607955 1.25535985 4.26441793 2.52883585 6 6 C6 6.99 6 7.98 6 9 C2.25 10.125 2.25 10.125 0 9 C-2.09821215 9.39938767 -2.09821215 9.39938767 -4 10 C-4 8.35 -4 6.7 -4 5 C-2.68 4.67 -1.36 4.34 0 4 C0 2.68 0 1.36 0 0 Z " fill="#D1CFCE" transform="translate(183,260)"/>
<path d="M0 0 C0.99 0.33 1.98 0.66 3 1 C3 3.31 3 5.62 3 8 C3.66 8.33 4.32 8.66 5 9 C3.42085985 9.53341184 1.83645613 10.05125763 0.25 10.5625 C-0.63171875 10.85253906 -1.5134375 11.14257812 -2.421875 11.44140625 C-5.07834316 12.01697435 -6.47031106 11.89248371 -9 11 C-8.071875 10.855625 -7.14375 10.71125 -6.1875 10.5625 C-2.90682422 9.35419015 -2.90682422 9.35419015 -1.93359375 6.86328125 C-1.19449517 4.58885712 -0.54605174 2.32790481 0 0 Z " fill="#313130" transform="translate(188,317)"/>
<path d="M0 0 C0.66 0.33 1.32 0.66 2 1 C0.60804085 3.7839183 -1.15575779 3.97898997 -4 5 C-4 6.65 -4 8.3 -4 10 C-8.75 11.125 -8.75 11.125 -11 10 C-10.1875 7.5625 -10.1875 7.5625 -9 5 C-8.01 4.67 -7.02 4.34 -6 4 C-5.67 3.01 -5.34 2.02 -5 1 C-4.01 1 -3.02 1 -2 1 C-1.34 0.67 -0.68 0.34 0 0 Z " fill="#1F1F1E" transform="translate(202,296)"/>
<path d="M0 0 C7.93396732 -0.24923458 15.2441657 0.29005228 23 2 C23.33 3.32 23.66 4.64 24 6 C20.20093956 5.61234077 17.18342263 5.0830593 13.6875 3.5 C9.11770923 1.64110206 4.88765748 1.28519531 0 1 C0 0.67 0 0.34 0 0 Z " fill="#030303" transform="translate(205,291)"/>
<path d="M0 0 C2.475 0.495 2.475 0.495 5 1 C5.125 3.875 5.125 3.875 5 7 C4.34 7.66 3.68 8.32 3 9 C2.01 9 1.02 9 0 9 C0 6.03 0 3.06 0 0 Z " fill="#090909" transform="translate(222,315)"/>
<path d="M0 0 C1.65 0 3.3 0 5 0 C5 0.99 5 1.98 5 3 C4.34 2.67 3.68 2.34 3 2 C3.33 3.32 3.66 4.64 4 6 C3.34 6 2.68 6 2 6 C2 7.65 2 9.3 2 11 C2.99 11 3.98 11 5 11 C5.33 10.34 5.66 9.68 6 9 C6 9.99 6 10.98 6 12 C4.02 12 2.04 12 0 12 C0 8.04 0 4.08 0 0 Z " fill="#939291" transform="translate(172,313)"/>
<path d="M0 0 C-1 2 -1 2 -2.92578125 2.8515625 C-4.10720703 3.23441406 -4.10720703 3.23441406 -5.3125 3.625 C-6.09238281 3.88539063 -6.87226563 4.14578125 -7.67578125 4.4140625 C-10 5 -10 5 -14 5 C-14 5.66 -14 6.32 -14 7 C-14.66 6.67 -15.32 6.34 -16 6 C-15.67 5.01 -15.34 4.02 -15 3 C-12.12890625 1.796875 -12.12890625 1.796875 -8.5625 0.75 C-7.38816406 0.39421875 -6.21382812 0.0384375 -5.00390625 -0.328125 C-2 -1 -2 -1 0 0 Z " fill="#151515" transform="translate(174,297)"/>
<path d="M0 0 C2.9375 0.8125 2.9375 0.8125 6 2 C6.33 2.99 6.66 3.98 7 5 C6.071875 5.12375 6.071875 5.12375 5.125 5.25 C2.81562433 5.81258459 2.81562433 5.81258459 1.75 8.0625 C1.5025 8.701875 1.255 9.34125 1 10 C-0.83691257 6.21812119 -1.15837626 4.05431692 0 0 Z " fill="#292928" transform="translate(177,261)"/>
<path d="M0 0 C1.32 0.33 2.64 0.66 4 1 C4.33 2.32 4.66 3.64 5 5 C4.360625 5.103125 3.72125 5.20625 3.0625 5.3125 C2.381875 5.539375 1.70125 5.76625 1 6 C0.67 6.99 0.34 7.98 0 9 C-0.66 6.69 -1.32 4.38 -2 2 C-1.34 2 -0.68 2 0 2 C0 1.34 0 0.68 0 0 Z " fill="#ECEAE9" transform="translate(222,259)"/>
<path d="M0 0 C1.65 0 3.3 0 5 0 C5.33 1.65 5.66 3.3 6 5 C3.69 5 1.38 5 -1 5 C-0.67 3.35 -0.34 1.7 0 0 Z " fill="#5B5B5A" transform="translate(182,334)"/>
<path d="M0 0 C2.99999941 2.63076871 4.72382055 5.74179832 6.6875 9.1875 C7.31011719 10.27417969 7.93273437 11.36085938 8.57421875 12.48046875 C9.04472656 13.31191406 9.51523438 14.14335937 10 15 C9.01 16.485 9.01 16.485 8 18 C6.66180502 15.3773768 5.3292849 12.75213401 4 10.125 C3.6184375 9.37863281 3.236875 8.63226563 2.84375 7.86328125 C2.4828125 7.14785156 2.121875 6.43242187 1.75 5.6953125 C1.41484375 5.03547363 1.0796875 4.37563477 0.734375 3.69580078 C0 2 0 2 0 0 Z " fill="#B1B1B0" transform="translate(224,278)"/>
<path d="M0 0 C0.33 0 0.66 0 1 0 C1.226875 0.94875 1.45375 1.8975 1.6875 2.875 C2.69083714 6.19323388 2.69083714 6.19323388 5.625 7.375 C6.40875 7.58125 7.1925 7.7875 8 8 C8 8.33 8 8.66 8 9 C4.37 9 0.74 9 -3 9 C-2.34 8.67 -1.68 8.34 -1 8 C-0.53476937 6.10466658 -0.53476937 6.10466658 -0.375 3.9375 C-0.25125 2.638125 -0.1275 1.33875 0 0 Z " fill="#1E1E1D" transform="translate(194,318)"/>
<path d="M0 0 C0.33 0.66 0.66 1.32 1 2 C2.98 1.67 4.96 1.34 7 1 C6 4 6 4 4 5 C1.6670134 5.04022391 -0.66706666 5.04320247 -3 5 C-2.625 3.0625 -2.625 3.0625 -2 1 C-1.34 0.67 -0.68 0.34 0 0 Z " fill="#E2E2E2" transform="translate(150,297)"/>
<path d="M0 0 C0.66 1.32 1.32 2.64 2 4 C1.01 4.33 0.02 4.66 -1 5 C-1 6.98 -1 8.96 -1 11 C-2.65 11.33 -4.3 11.66 -6 12 C-6 8.74188938 -5.4477922 6.89558441 -4 4 C-3.01 3.67 -2.02 3.34 -1 3 C-0.67 2.01 -0.34 1.02 0 0 Z " fill="#9B9998" transform="translate(223,254)"/>
<path d="M0 0 C0.99 0.33 1.98 0.66 3 1 C3.73046875 3.06640625 3.73046875 3.06640625 4.1875 5.5625 C4.34605469 6.38878906 4.50460938 7.21507812 4.66796875 8.06640625 C4.77753906 8.70449219 4.88710937 9.34257812 5 10 C4.34 10 3.68 10 3 10 C2.67 8.68 2.34 7.36 2 6 C1.67 7.65 1.34 9.3 1 11 C0.34 10.67 -0.32 10.34 -1 10 C-0.67 6.7 -0.34 3.4 0 0 Z " fill="#A7A5A4" transform="translate(161,314)"/>
<path d="M0 0 C0.99 0.33 1.98 0.66 3 1 C2.25 7.625 2.25 7.625 0 11 C-0.99 11 -1.98 11 -3 11 C-1.25 5.25 -1.25 5.25 1 3 C0.34 2.67 -0.32 2.34 -1 2 C-0.67 1.34 -0.34 0.68 0 0 Z " fill="#797878" transform="translate(236,269)"/>
<path d="M0 0 C-0.33 0.99 -0.66 1.98 -1 3 C-1.66 2.67 -2.32 2.34 -3 2 C-3 2.99 -3 3.98 -3 5 C-4.32 4.67 -5.64 4.34 -7 4 C-6.67 2.68 -6.34 1.36 -6 0 C-2.25 -1.125 -2.25 -1.125 0 0 Z " fill="#686766" transform="translate(209,236)"/>
<path d="M0 0 C0.99 0 1.98 0 3 0 C3.33 3.96 3.66 7.92 4 12 C3.34 12 2.68 12 2 12 C1.855625 10.948125 1.71125 9.89625 1.5625 8.8125 C1.12473034 5.84539451 0.62195134 2.93205634 0 0 Z " fill="#9D9C9B" transform="translate(189,313)"/>
<path d="M0 0 C2 3 2 3 1.625 5.6875 C1.41875 6.450625 1.2125 7.21375 1 8 C0.01 8 -0.98 8 -2 8 C-2.66 7.34 -3.32 6.68 -4 6 C-3.525625 5.566875 -3.05125 5.13375 -2.5625 4.6875 C-0.76313043 2.97690387 -0.76313043 2.97690387 0 0 Z " fill="#E1DFDE" transform="translate(191,242)"/>
<path d="M0 0 C2.68234235 2.42457972 4.36856725 5.07510397 6.1875 8.1875 C6.71730469 9.08855469 7.24710938 9.98960937 7.79296875 10.91796875 C8.19128906 11.60503906 8.58960938 12.29210937 9 13 C8.01 13 7.02 13 6 13 C4.99491199 11.21118264 3.99607264 9.41885304 3 7.625 C2.1646875 6.12839844 2.1646875 6.12839844 1.3125 4.6015625 C0 2 0 2 0 0 Z " fill="#D9D7D6" transform="translate(151,235)"/>
<path d="M0 0 C0.66 0 1.32 0 2 0 C0.79157144 4.43090471 -0.51668565 6.98112756 -4 10 C-4.33 9.34 -4.66 8.68 -5 8 C-4.07421875 6.0546875 -4.07421875 6.0546875 -2.6875 3.875 C-2.23761719 3.15054687 -1.78773438 2.42609375 -1.32421875 1.6796875 C-0.88722656 1.12539063 -0.45023438 0.57109375 0 0 Z " fill="#7D7D7D" transform="translate(158,280)"/>
<path d="M0 0 C0.66 0 1.32 0 2 0 C2.6875 2.3125 2.6875 2.3125 3 5 C1.5625 6.8125 1.5625 6.8125 0 8 C0 7.34 0 6.68 0 6 C-1.32 6 -2.64 6 -4 6 C-4 5.34 -4 4.68 -4 4 C-3.01 4 -2.02 4 -1 4 C-0.67 2.68 -0.34 1.36 0 0 Z " fill="#292928" transform="translate(186,255)"/>
<path d="M0 0 C2 1 2 1 3.1875 3.4375 C4 6 4 6 3 8 C2.34 8 1.68 8 1 8 C0.34 8.66 -0.32 9.32 -1 10 C-2.31223496 6.06329512 -1.24296256 3.87511856 0 0 Z " fill="#757473" transform="translate(193,243)"/>
<path d="M0 0 C4.29 0 8.58 0 13 0 C10.50494038 2.49505962 9.32671112 2.35948376 5.875 2.625 C4.96492187 2.69976562 4.05484375 2.77453125 3.1171875 2.8515625 C2.06917969 2.92503906 2.06917969 2.92503906 1 3 C0.67 2.01 0.34 1.02 0 0 Z " fill="#161615" transform="translate(168,327)"/>
<path d="M0 0 C0.66 1.32 1.32 2.64 2 4 C0.6875 6 0.6875 6 -1 8 C-1.99 8 -2.98 8 -4 8 C-2.87548273 5.0280615 -1.77706209 2.66559313 0 0 Z " fill="#919191" transform="translate(152,290)"/>
<path d="M0 0 C0.99 0 1.98 0 3 0 C4.125 3.75 4.125 3.75 3 6 C1.68 5.67 0.36 5.34 -1 5 C-0.67 3.35 -0.34 1.7 0 0 Z " fill="#6D6C6B" transform="translate(216,247)"/>
<path d="M0 0 C1.65 0 3.3 0 5 0 C5 1.32 5 2.64 5 4 C3.35 4 1.7 4 0 4 C0 2.68 0 1.36 0 0 Z " fill="#191918" transform="translate(171,334)"/>
<path d="M0 0 C0.66 0 1.32 0 2 0 C2 3.96 2 7.92 2 12 C1.67 12 1.34 12 1 12 C0.855625 10.9275 0.71125 9.855 0.5625 8.75 C0.10012053 5.20640191 0.10012053 5.20640191 -0.625 2.625 C-0.74875 2.08875 -0.8725 1.5525 -1 1 C-0.67 0.67 -0.34 0.34 0 0 Z " fill="#A9A7A6" transform="translate(168,313)"/>
<path d="M0 0 C0.99 0.33 1.98 0.66 3 1 C2.42655063 3.86724686 2.1385485 4.8614515 0 7 C-0.66 6.34 -1.32 5.68 -2 5 C-1.46428571 1.46428571 -1.46428571 1.46428571 0 0 Z " fill="#171716" transform="translate(163,271)"/>
<path d="M0 0 C0.66 0.33 1.32 0.66 2 1 C2 2.98 2 4.96 2 7 C0.35 5.35 -1.3 3.7 -3 2 C-2.01 1.34 -1.02 0.68 0 0 Z " fill="#111111" transform="translate(181,269)"/>
<path d="M0 0 C1.32 0 2.64 0 4 0 C4.66 1.65 5.32 3.3 6 5 C3.69 4.67 1.38 4.34 -1 4 C-0.67 2.68 -0.34 1.36 0 0 Z " fill="#1C1C1B" transform="translate(228,294)"/>
<path d="M0 0 C0.99 0.33 1.98 0.66 3 1 C3 1.66 3 2.32 3 3 C3.66 3.33 4.32 3.66 5 4 C3.68 4 2.36 4 1 4 C0.67 2.68 0.34 1.36 0 0 Z M7 0 C7.66 0.33 8.32 0.66 9 1 C8.01 1 7.02 1 6 1 C6.33 0.67 6.66 0.34 7 0 Z " fill="#666564" transform="translate(202,245)"/>
<path d="M0 0 C2.64 0.66 5.28 1.32 8 2 C7.67 2.99 7.34 3.98 7 5 C4.11424181 4.60196439 3.17810487 4.20990931 1.25 1.9375 C0.8375 1.298125 0.425 0.65875 0 0 Z " fill="#C9C9C9" transform="translate(152,305)"/>
<path d="M0 0 C3.125 -0.1875 3.125 -0.1875 6 0 C3.6875 2.0625 3.6875 2.0625 1 4 C0.01 3.67 -0.98 3.34 -2 3 C-1.34 2.01 -0.68 1.02 0 0 Z " fill="#D1D1D1" transform="translate(154,289)"/>
<path d="M0 0 C2.625 -0.1875 2.625 -0.1875 5 0 C5.33 0.66 5.66 1.32 6 2 C1.375 4.125 1.375 4.125 -2 3 C-1.34 2.01 -0.68 1.02 0 0 Z " fill="#181818" transform="translate(158,285)"/>
<path d="M0 0 C-0.33 1.65 -0.66 3.3 -1 5 C-1.99 5 -2.98 5 -4 5 C-4 3.68 -4 2.36 -4 1 C-2 0 -2 0 0 0 Z " fill="#EAE8E7" transform="translate(207,257)"/>
</svg>
